<svg width="30" height="30" viewBox="0 0 30 30" fill="none" xmlns="http://www.w3.org/2000/svg">
<path d="M30 9.50001V7.00001C29.9955 6.84712 29.958 6.69702 29.89 6.56001L27.45 1.66001C27.2006 1.16036 26.8166 0.740256 26.3414 0.446982C25.8661 0.153709 25.3184 -0.0010917 24.76 5.79543e-06H5.24C4.68155 -0.0010917 4.13388 0.153709 3.65864 0.446982C3.18339 0.740256 2.79944 1.16036 2.55 1.66001L0.11 6.55001C0.0406038 6.69006 0.00304023 6.84373 0 7.00001V9.50001C0.00114834 10.2396 0.18417 10.9676 0.53294 11.6198C0.881711 12.272 1.38553 12.8284 2 13.24V28H1C0.734784 28 0.48043 28.1054 0.292893 28.2929C0.105357 28.4804 0 28.7348 0 29C0 29.2652 0.105357 29.5196 0.292893 29.7071C0.48043 29.8946 0.734784 30 1 30H29C29.2652 30 29.5196 29.8946 29.7071 29.7071C29.8946 29.5196 30 29.2652 30 29C30 28.7348 29.8946 28.4804 29.7071 28.2929C29.5196 28.1054 29.2652 28 29 28H28V13.24C28.6145 12.8284 29.1183 12.272 29.4671 11.6198C29.8158 10.9676 29.9989 10.2396 30 9.50001ZM28 9.50001C28 10.163 27.7366 10.7989 27.2678 11.2678C26.7989 11.7366 26.163 12 25.5 12C24.837 12 24.2011 11.7366 23.7322 11.2678C23.2634 10.7989 23 10.163 23 9.50001V8.00001H28V9.50001ZM2 9.50001V8.00001H7V9.50001C7 10.163 6.73661 10.7989 6.26777 11.2678C5.79893 11.7366 5.16304 12 4.5 12C3.83696 12 3.20107 11.7366 2.73223 11.2678C2.26339 10.7989 2 10.163 2 9.50001ZM9 8.00001H14V9.50001C14 10.163 13.7366 10.7989 13.2678 11.2678C12.7989 11.7366 12.163 12 11.5 12C10.837 12 10.2011 11.7366 9.73223 11.2678C9.26339 10.7989 9 10.163 9 9.50001V8.00001ZM16 8.00001H21V9.50001C21 10.163 20.7366 10.7989 20.2678 11.2678C19.7989 11.7366 19.163 12 18.5 12C17.837 12 17.2011 11.7366 16.7322 11.2678C16.2634 10.7989 16 10.163 16 9.50001V8.00001ZM4.34 2.55001C4.42386 2.38357 4.55257 2.24388 4.71159 2.1467C4.87062 2.04952 5.05364 1.99871 5.24 2.00001H24.76C24.9464 1.99871 25.1294 2.04952 25.2884 2.1467C25.4474 2.24388 25.5761 2.38357 25.66 2.55001L27.38 6.00001H2.62L4.34 2.55001ZM18 28H12V22C12 21.7348 12.1054 21.4804 12.2929 21.2929C12.4804 21.1054 12.7348 21 13 21H17C17.2652 21 17.5196 21.1054 17.7071 21.2929C17.8946 21.4804 18 21.7348 18 22V28ZM26 28H20V22C20 21.2044 19.6839 20.4413 19.1213 19.8787C18.5587 19.3161 17.7956 19 17 19H13C12.2044 19 11.4413 19.3161 10.8787 19.8787C10.3161 20.4413 10 21.2044 10 22V28H4V14C4.16553 14.0266 4.33249 14.0433 4.5 14.05C5.17505 14.0442 5.84014 13.8866 6.446 13.5888C7.05187 13.2911 7.58298 12.8609 8 12.33C8.42183 12.852 8.95506 13.273 9.56066 13.5622C10.1663 13.8515 10.8289 14.0016 11.5 14.0016C12.1711 14.0016 12.8337 13.8515 13.4393 13.5622C14.0449 13.273 14.5782 12.852 15 12.33C15.4218 12.852 15.9551 13.273 16.5607 13.5622C17.1663 13.8515 17.8289 14.0016 18.5 14.0016C19.1711 14.0016 19.8337 13.8515 20.4393 13.5622C21.0449 13.273 21.5782 12.852 22 12.33C22.422 12.8517 22.9553 13.2724 23.5609 13.5614C24.1665 13.8503 24.829 14.0002 25.5 14C25.6665 14.0099 25.8335 14.0099 26 14V28Z" fill="#ffff"/>
</svg>
